<svg id="Layer_1" data-name="Layer 1" xmlns="http://www.w3.org/2000/svg" viewBox="0 0 35.834 35.667"><defs><style>.cls-1{fill:#fef0c7;}.cls-2{fill:#fedf89;}.cls-3{opacity:0.76;}.cls-4{fill:#343b48;}</style></defs><g id="last_quarter"><g id="moon"><path class="cls-1" d="M49.834,32c0,.268-.006.529-.018.791A17.834,17.834,0,0,1,14.166,32v-.077A17.836,17.836,0,0,1,32,14.166a17.937,17.937,0,0,1,10.023,3.086A17.8,17.8,0,0,1,49.834,32Z" transform="translate(-14.166 -14.166)"/><circle class="cls-2" cx="13.672" cy="8.322" r="2.972"/><circle class="cls-2" cx="10.997" cy="22.887" r="1.486"/><circle class="cls-2" cx="14.056" cy="20.367" r="0.805"/><circle class="cls-2" cx="22.292" cy="27.642" r="2.081"/><path class="cls-2" d="M42.023,17.252a2.974,2.974,0,1,1-5.3-2.444A17.485,17.485,0,0,1,42.023,17.252Z" transform="translate(-14.166 -14.166)"/><path class="cls-2" d="M49.816,32.791a17.722,17.722,0,0,1-.624,3.947,1.762,1.762,0,0,1-.25.018,2.081,2.081,0,1,1,.874-3.965Z" transform="translate(-14.166 -14.166)"/><path class="cls-2" d="M15.95,29.622a2.373,2.373,0,0,1-1.784,2.3,17.662,17.662,0,0,1,.565-4.375A2.375,2.375,0,0,1,15.95,29.622Z" transform="translate(-14.166 -14.166)"/></g><g class="cls-3"><path class="cls-4" d="M32.166,14.166A17.833,17.833,0,0,1,50,32v.077A17.836,17.836,0,0,1,32.166,49.834" transform="translate(-14.166 -14.166)"/></g></g></svg>