<svg width="16" height="16" viewBox="0 0 16 16" fill="none" xmlns="http://www.w3.org/2000/svg">
<path d="M2 7.33333V12.6667H2.034C2.19733 13.7947 3.16067 14.6667 4.33333 14.6667C5.116 14.6667 5.716 14.3887 6.11467 13.884C6.36259 14.1329 6.65737 14.3303 6.98198 14.4647C7.3066 14.599 7.65462 14.6678 8.00595 14.6669C8.35727 14.666 8.70495 14.5956 9.02889 14.4596C9.35284 14.3236 9.64664 14.1248 9.89333 13.8747C10.294 14.3827 10.896 14.6667 11.6667 14.6667C12.9533 14.6667 14 13.62 14 12.3333V7.33333C14 4.02533 11.3087 1.33333 8 1.33333C4.69133 1.33333 2 4.02533 2 7.33333ZM6 8C5.26467 8 4.66667 7.402 4.66667 6.66667C4.66667 5.93133 5.26467 5.33333 6 5.33333C6.73533 5.33333 7.33333 5.93133 7.33333 6.66667C7.33333 7.402 6.73533 8 6 8ZM10 5.33333C10.7353 5.33333 11.3333 5.93133 11.3333 6.66667C11.3333 7.402 10.7353 8 10 8C9.26467 8 8.66667 7.402 8.66667 6.66667C8.66667 5.93133 9.26467 5.33333 10 5.33333Z" fill="#7F56D9"/>
</svg>
