<svg width="19" height="18" viewBox="0 0 19 18" fill="none" xmlns="http://www.w3.org/2000/svg">
<path fill-rule="evenodd" clip-rule="evenodd" d="M15.7059 5.54446C15.7346 5.45137 15.75 5.35248 15.75 5.25C15.75 4.69772 15.3023 4.25 14.75 4.25H12.0155C12.0053 4.3319 12 4.41533 12 4.5C12 5.25301 12.4161 5.90882 13.031 6.25H14.75C14.8525 6.25 14.9514 6.23458 15.0445 6.20594C15.3137 6.04077 15.5408 5.81366 15.7059 5.54446ZM10.4021 6.25C10.1445 5.7214 10 5.12758 10 4.5C10 4.41604 10.0026 4.33268 10.0077 4.25H4.25C3.69772 4.25 3.25 4.69772 3.25 5.25C3.25 5.80228 3.69772 6.25 4.25 6.25H10.4021ZM14 8.5C14.495 8.5 14.969 8.41009 15.4065 8.2457C15.617 8.42903 15.75 8.69898 15.75 9C15.75 9.55228 15.3023 10 14.75 10H4.25C3.69772 10 3.25 9.55228 3.25 9C3.25 8.44772 3.69772 8 4.25 8H12.062C12.6361 8.31858 13.2969 8.5 14 8.5ZM4.25 11.75C3.69772 11.75 3.25 12.1977 3.25 12.75C3.25 13.3023 3.69772 13.75 4.25 13.75H14.75C15.3023 13.75 15.75 13.3023 15.75 12.75C15.75 12.1977 15.3023 11.75 14.75 11.75H4.25Z" fill="#9E77ED"/>
<circle cx="14" cy="4.5" r="2.25" fill="#9E77ED"/>
</svg>
