<svg id="Layer_1" data-name="Layer 1" xmlns="http://www.w3.org/2000/svg" viewBox="0 0 61.344 9.194"><defs><style>.cls-1{fill:#fffaeb;}.cls-2{fill:#fef0c7;}</style></defs><g id="logo"><path class="cls-1" d="M10.133,15.537a.536.536,0,0,1-.6-.611v-4.8c0-.408.2-.612.588-.612s.588.2.588.612v.42a1.928,1.928,0,0,1,.732-.78,2.112,2.112,0,0,1,1.092-.276,1.651,1.651,0,0,1,1.74,1.176,2.074,2.074,0,0,1,.792-.864,2.23,2.23,0,0,1,1.176-.312q1.97,0,1.968,2.352v3.085a.606.606,0,1,1-1.212,0V11.9a1.846,1.846,0,0,0-.258-1.092.983.983,0,0,0-.845-.348,1.283,1.283,0,0,0-1.044.462,1.9,1.9,0,0,0-.384,1.254v2.749a.536.536,0,0,1-.6.611.54.54,0,0,1-.611-.611V11.9A1.88,1.88,0,0,0,13,10.809a.969.969,0,0,0-.841-.348,1.27,1.27,0,0,0-1.038.462,1.922,1.922,0,0,0-.378,1.254v2.749A.54.54,0,0,1,10.133,15.537Z" transform="translate(-9.532 -6.909)"/><path class="cls-1" d="M42.1,15.537a.536.536,0,0,1-.6-.611v-4.8q0-.612.588-.612t.588.612v.444a2.013,2.013,0,0,1,.822-.8,2.467,2.467,0,0,1,1.17-.276q2.076,0,2.076,2.352v3.085a.535.535,0,0,1-.6.611.541.541,0,0,1-.613-.611V11.913a1.689,1.689,0,0,0-.294-1.1,1.136,1.136,0,0,0-.918-.348,1.536,1.536,0,0,0-1.17.462,1.7,1.7,0,0,0-.438,1.218v2.785A.54.54,0,0,1,42.1,15.537Z" transform="translate(-9.532 -6.909)"/><path class="cls-1" d="M51.256,15.561a1.777,1.777,0,0,1-1.41-.54,2.329,2.329,0,0,1-.474-1.583V7.521a.535.535,0,0,1,.6-.612.541.541,0,0,1,.612.612v5.844q0,1.188.96,1.188a1.345,1.345,0,0,0,.191-.012,1.208,1.208,0,0,1,.168-.012.2.2,0,0,1,.2.078.737.737,0,0,1,.061.366.5.5,0,0,1-.456.564q-.12.012-.234.018C51.4,15.559,51.328,15.561,51.256,15.561Z" transform="translate(-9.532 -6.909)"/><path class="cls-1" d="M54.6,8.289a.8.8,0,0,1-.558-.18.647.647,0,0,1-.2-.5c0-.456.253-.684.756-.684s.756.228.756.684S55.108,8.289,54.6,8.289Zm0,7.236q-.6,0-.6-.66v-4.68q0-.648.6-.648t.612.648v4.68Q55.216,15.525,54.6,15.525Z" transform="translate(-9.532 -6.909)"/><path class="cls-1" d="M58.479,15.537a.535.535,0,0,1-.6-.611v-4.8c0-.408.2-.612.588-.612s.588.2.588.612v.444a2.007,2.007,0,0,1,.822-.8,2.461,2.461,0,0,1,1.17-.276q2.076,0,2.076,2.352v3.085a.607.607,0,1,1-1.213,0V11.913a1.7,1.7,0,0,0-.294-1.1,1.135,1.135,0,0,0-.918-.348,1.538,1.538,0,0,0-1.17.462,1.7,1.7,0,0,0-.437,1.218v2.785A.541.541,0,0,1,58.479,15.537Z" transform="translate(-9.532 -6.909)"/><path class="cls-1" d="M68.5,15.561a3.106,3.106,0,0,1-2.269-.81,2.959,2.959,0,0,1-.828-2.214,3.331,3.331,0,0,1,.367-1.59,2.684,2.684,0,0,1,1.013-1.074,2.868,2.868,0,0,1,1.488-.384,2.437,2.437,0,0,1,1.909.774,3.07,3.07,0,0,1,.7,2.13q0,.408-.48.408H66.58a1.737,1.737,0,0,0,1.932,1.824,3.354,3.354,0,0,0,.756-.09,2.408,2.408,0,0,0,.768-.33.615.615,0,0,1,.438-.1.38.38,0,0,1,.27.2.477.477,0,0,1,.029.36.6.6,0,0,1-.282.343,3.038,3.038,0,0,1-.953.414A4.242,4.242,0,0,1,68.5,15.561Zm-.181-5.22a1.573,1.573,0,0,0-1.2.468,2.129,2.129,0,0,0-.54,1.248h3.275a1.987,1.987,0,0,0-.431-1.266A1.4,1.4,0,0,0,68.319,10.341Z" transform="translate(-9.532 -6.909)"/><path class="cls-2" d="M28.792,12.089a.484.484,0,0,1,.2.046c0-.061,0-.122,0-.184a4.144,4.144,0,0,0-1.819-3.434.692.692,0,1,1-1.234-.569,4.072,4.072,0,0,0-1.1-.149,4.152,4.152,0,0,0-4.021,3.115.553.553,0,0,1-.131,1.019v.018a4.152,4.152,0,0,0,8.155,1.1.39.39,0,0,1-.059,0,.485.485,0,0,1,0-.969Zm-5.536,1.385a.347.347,0,1,1,.346-.346A.346.346,0,0,1,23.256,13.474Zm.712-.745a.188.188,0,1,1,.188-.188A.188.188,0,0,1,23.968,12.729Zm-.089-2.3a.692.692,0,1,1,.692-.692A.692.692,0,0,1,23.879,10.429Zm2.007,4.29a.485.485,0,1,1,.484-.484A.485.485,0,0,1,25.886,14.719Z" transform="translate(-9.532 -6.909)"/><path class="cls-2" d="M38.792,12.089a.484.484,0,0,1,.2.046c0-.061,0-.122,0-.184a4.144,4.144,0,0,0-1.819-3.434.692.692,0,1,1-1.234-.569,4.072,4.072,0,0,0-1.1-.149,4.152,4.152,0,0,0-4.021,3.115.553.553,0,0,1-.131,1.019v.018a4.152,4.152,0,0,0,8.155,1.1.39.39,0,0,1-.059,0,.485.485,0,0,1,0-.969Zm-5.536,1.385a.347.347,0,1,1,.346-.346A.346.346,0,0,1,33.256,13.474Zm.712-.745a.188.188,0,1,1,.188-.188A.188.188,0,0,1,33.968,12.729Zm-.089-2.3a.692.692,0,1,1,.692-.692A.692.692,0,0,1,33.879,10.429Zm2.007,4.29a.485.485,0,1,1,.484-.484A.485.485,0,0,1,35.886,14.719Z" transform="translate(-9.532 -6.909)"/></g></svg>