<svg width="80" height="57" viewBox="0 0 80 57" fill="none" xmlns="http://www.w3.org/2000/svg">
<path d="M61 28.69C61 29.08 61 29.46 61 29.84C60.9231 31.789 60.6177 33.7222 60.09 35.6C58.4359 41.6871 54.6253 46.9653 49.3682 50.4512C44.1111 53.9371 37.7659 55.393 31.515 54.5475C25.2641 53.7021 19.5337 50.613 15.3914 45.8558C11.2492 41.0986 8.97764 34.9978 8.99998 28.69V28.58C9.02907 21.7035 11.7812 15.1185 16.654 10.2663C21.5268 5.41411 28.1234 2.68994 35 2.69C40.2089 2.70548 45.2951 4.27208 49.61 7.19C53.118 9.57304 55.9898 12.778 57.9751 16.5255C59.9604 20.2729 60.9989 24.4491 61 28.69Z" fill="#FEF0C7"/>
<path d="M28.93 19.16C31.3214 19.16 33.26 17.2214 33.26 14.83C33.26 12.4386 31.3214 10.5 28.93 10.5C26.5386 10.5 24.6 12.4386 24.6 14.83C24.6 17.2214 26.5386 19.16 28.93 19.16Z" fill="#FEDF89"/>
<path d="M25.03 38.23C26.2284 38.23 27.2 37.2585 27.2 36.06C27.2 34.8615 26.2284 33.89 25.03 33.89C23.8315 33.89 22.86 34.8615 22.86 36.06C22.86 37.2585 23.8315 38.23 25.03 38.23Z" fill="#FEDF89"/>
<path d="M29.49 33.56C30.1362 33.56 30.66 33.0362 30.66 32.39C30.66 31.7438 30.1362 31.22 29.49 31.22C28.8438 31.22 28.32 31.7438 28.32 32.39C28.32 33.0362 28.8438 33.56 29.49 33.56Z" fill="#FEDF89"/>
<path d="M41.5 46.02C43.1734 46.02 44.53 44.6634 44.53 42.99C44.53 41.3166 43.1734 39.96 41.5 39.96C39.8265 39.96 38.47 41.3166 38.47 42.99C38.47 44.6634 39.8265 46.02 41.5 46.02Z" fill="#FEDF89"/>
<path d="M49.61 7.19C49.4553 7.80746 49.1664 8.38322 48.7639 8.8763C48.3613 9.36937 47.855 9.76763 47.281 10.0427C46.707 10.3178 46.0794 10.4629 45.4429 10.4678C44.8064 10.4727 44.1766 10.3372 43.5984 10.0709C43.0203 9.80462 42.5079 9.41416 42.0979 8.9273C41.6878 8.44045 41.3902 7.86917 41.2261 7.25416C41.062 6.63914 41.0355 5.99551 41.1485 5.3691C41.2616 4.74269 41.5113 4.14889 41.88 3.63C44.6398 4.37004 47.2537 5.57385 49.61 7.19Z" fill="#FEDF89"/>
<path d="M61 29.84C60.9231 31.789 60.6177 33.7222 60.09 35.6H59.73C59.2897 35.5856 58.8579 35.4744 58.4654 35.2743C58.0729 35.0742 57.7293 34.7902 57.459 34.4423C57.1887 34.0944 56.9984 33.6912 56.9015 33.2615C56.8046 32.8317 56.8035 32.3859 56.8984 31.9557C56.9932 31.5254 57.1817 31.1214 57.4503 30.7722C57.719 30.4231 58.0612 30.1374 58.4527 29.9354C58.8443 29.7334 59.2755 29.6202 59.7157 29.6037C60.156 29.5872 60.5944 29.6679 61 29.84Z" fill="#FEDF89"/>
<path d="M11.6 25.22C11.6019 25.9894 11.3473 26.7375 10.8764 27.346C10.4055 27.9546 9.74528 28.3888 9 28.58C9.00632 26.4275 9.28179 24.2842 9.82 22.2C10.3595 22.4984 10.8091 22.936 11.1222 23.4671C11.4352 23.9982 11.6002 24.6035 11.6 25.22Z" fill="#FEDF89"/>
<path d="M30.67 22.36C30.5957 22.3591 30.5222 22.3749 30.4547 22.406C30.3872 22.4371 30.3276 22.4829 30.28 22.54C29.8525 23.1599 29.2905 23.6752 28.636 24.0475C27.9815 24.4197 27.2513 24.6394 26.5 24.69C24.21 24.69 22.41 22.58 22.39 22.56C22.351 22.5013 22.3001 22.4516 22.2405 22.414C22.181 22.3764 22.1142 22.3518 22.0444 22.3418C21.9747 22.3318 21.9037 22.3367 21.8359 22.356C21.7682 22.3754 21.7054 22.4089 21.6515 22.4543C21.5976 22.4996 21.5539 22.5559 21.5233 22.6193C21.4927 22.6827 21.4758 22.7519 21.4738 22.8223C21.4718 22.8927 21.4846 22.9628 21.5115 23.0279C21.5385 23.0929 21.5788 23.1516 21.63 23.2C22.2357 23.9153 22.9769 24.5036 23.811 24.9309C24.6452 25.3583 25.5557 25.6163 26.49 25.69C27.3881 25.6432 28.2642 25.3952 29.0535 24.9642C29.8428 24.5332 30.5251 23.9302 31.05 23.2C31.1347 23.0972 31.1758 22.9655 31.1646 22.8328C31.1534 22.7001 31.0907 22.5771 30.99 22.49C30.8997 22.414 30.7877 22.3685 30.67 22.36Z" fill="#475467"/>
<path d="M48 22.69C47.9273 22.6899 47.8554 22.706 47.7897 22.7372C47.724 22.7683 47.666 22.8137 47.62 22.87C47.1852 23.4894 46.6155 24.0021 45.9538 24.3693C45.2921 24.7365 44.5557 24.9488 43.8 24.99C42.2064 24.8373 40.7336 24.074 39.69 22.86C39.6038 22.7655 39.4857 22.7061 39.3584 22.6932C39.2311 22.6803 39.1035 22.7147 39 22.79C38.8993 22.8771 38.8367 23.0001 38.8255 23.1328C38.8142 23.2655 38.8554 23.3972 38.94 23.5C39.03 23.6 41.05 25.99 43.82 25.99C44.7181 25.9432 45.5942 25.6952 46.3835 25.2642C47.1728 24.8332 47.8551 24.2303 48.38 23.5C48.4611 23.395 48.499 23.2631 48.486 23.1311C48.473 22.9991 48.41 22.8771 48.31 22.79C48.2194 22.7256 48.1112 22.6906 48 22.69Z" fill="#475467"/>
<path d="M35 38.39H34.8C31.8 38.28 29.86 35.61 29.8 35.49C29.7619 35.4375 29.7346 35.378 29.7195 35.3149C29.7044 35.2517 29.7019 35.1863 29.7121 35.1222C29.7223 35.0581 29.745 34.9967 29.779 34.9414C29.813 34.8861 29.8575 34.8381 29.91 34.8C29.9625 34.7619 30.022 34.7346 30.0851 34.7195C30.1482 34.7044 30.2137 34.7019 30.2778 34.7121C30.3419 34.7223 30.4033 34.745 30.4586 34.779C30.5139 34.813 30.5619 34.8575 30.6 34.91C30.6 34.91 32.39 37.3 34.87 37.39C36.44 37.45 37.96 36.6 39.45 34.87C39.5375 34.7692 39.6615 34.7073 39.7946 34.698C39.9278 34.6886 40.0592 34.7325 40.16 34.82C40.2608 34.9075 40.3227 35.0315 40.332 35.1646C40.3414 35.2978 40.2975 35.4292 40.21 35.53C38.51 37.42 36.77 38.39 35 38.39Z" fill="#475467"/>
<path d="M15.79 30.57H15.73C15.7113 30.5626 15.6944 30.5513 15.6804 30.5368C15.6665 30.5223 15.6559 30.505 15.6492 30.486C15.6426 30.467 15.6401 30.4469 15.642 30.4268C15.6438 30.4068 15.65 30.3874 15.66 30.37L16.37 28.89C16.389 28.856 16.4199 28.83 16.4567 28.8171C16.4936 28.8043 16.5338 28.8053 16.57 28.82C16.589 28.8285 16.606 28.8408 16.62 28.8562C16.634 28.8717 16.6447 28.8898 16.6512 28.9096C16.6578 28.9293 16.6602 28.9502 16.6583 28.971C16.6563 28.9917 16.6501 29.0118 16.64 29.03L15.93 30.5C15.9146 30.5227 15.8936 30.541 15.8691 30.5533C15.8446 30.5655 15.8174 30.5713 15.79 30.57Z" fill="#F97066"/>
<path d="M17 31.69H16.94C16.9213 31.6826 16.9044 31.6713 16.8905 31.6568C16.8765 31.6423 16.8659 31.625 16.8592 31.606C16.8526 31.587 16.8501 31.5669 16.852 31.5468C16.8538 31.5268 16.86 31.5074 16.87 31.49L18.44 28.22C18.4573 28.1842 18.488 28.1568 18.5255 28.1436C18.563 28.1305 18.6042 28.1328 18.64 28.15C18.6587 28.1574 18.6756 28.1687 18.6895 28.1832C18.7035 28.1977 18.7141 28.215 18.7208 28.234C18.7274 28.253 18.7299 28.2731 18.728 28.2932C18.7262 28.3132 18.72 28.3326 18.71 28.35L17.14 31.62C17.1246 31.6427 17.1037 31.661 17.0791 31.6733C17.0546 31.6855 17.0274 31.6913 17 31.69Z" fill="#F97066"/>
<path d="M18.63 31.86H18.56C18.5259 31.8409 18.5 31.8101 18.4871 31.7732C18.4742 31.7364 18.4753 31.6961 18.49 31.66L20.13 28.28C20.1483 28.2461 20.179 28.2205 20.2157 28.2087C20.2524 28.1968 20.2922 28.1995 20.327 28.2162C20.3617 28.2329 20.3887 28.2624 20.4023 28.2985C20.4159 28.3346 20.4151 28.3745 20.4 28.41L18.76 31.79C18.747 31.8126 18.7279 31.8312 18.705 31.8435C18.682 31.8559 18.656 31.8616 18.63 31.86Z" fill="#F97066"/>
<path d="M20.57 31.44C20.5473 31.4476 20.5227 31.4476 20.5 31.44C20.4821 31.4316 20.4662 31.4196 20.4533 31.4047C20.4405 31.3898 20.4309 31.3723 20.4252 31.3534C20.4196 31.3345 20.4179 31.3147 20.4205 31.2951C20.423 31.2756 20.4297 31.2568 20.44 31.24L21.57 28.9C21.589 28.8659 21.6199 28.84 21.6567 28.8271C21.6936 28.8143 21.7338 28.8153 21.77 28.83C21.789 28.8385 21.806 28.8508 21.82 28.8662C21.834 28.8817 21.8446 28.8998 21.8512 28.9196C21.8578 28.9393 21.8602 28.9602 21.8583 28.981C21.8563 29.0017 21.8501 29.0218 21.84 29.04L20.7 31.36C20.6895 31.3853 20.6713 31.4067 20.6479 31.4211C20.6246 31.4355 20.5973 31.4421 20.57 31.44Z" fill="#F97066"/>
<path d="M47 30.57H46.93C46.8942 30.5527 46.8668 30.522 46.8536 30.4845C46.8405 30.447 46.8428 30.4058 46.86 30.37L47.57 28.89C47.5891 28.856 47.6199 28.83 47.6567 28.8171C47.6936 28.8043 47.7339 28.8053 47.77 28.82C47.8065 28.8392 47.8341 28.8718 47.8472 28.9109C47.8602 28.9501 47.8576 28.9927 47.84 29.03L47.13 30.5C47.1155 30.5213 47.0962 30.5387 47.0736 30.5509C47.0509 30.5631 47.0257 30.5696 47 30.57Z" fill="#F97066"/>
<path d="M48.19 31.69H48.12C48.086 31.671 48.0607 31.6395 48.0495 31.6022C48.0383 31.5648 48.042 31.5246 48.06 31.49L49.63 28.22C49.6483 28.1861 49.679 28.1605 49.7157 28.1487C49.7524 28.1368 49.7923 28.1395 49.827 28.1562C49.8617 28.1729 49.8887 28.2024 49.9023 28.2385C49.9159 28.2746 49.9151 28.3145 49.9 28.35L48.33 31.62C48.3146 31.6427 48.2937 31.661 48.2691 31.6733C48.2446 31.6855 48.2174 31.6913 48.19 31.69Z" fill="#F97066"/>
<path d="M49.83 31.86H49.76C49.7259 31.8409 49.7 31.8101 49.6871 31.7732C49.6743 31.7364 49.6753 31.6961 49.69 31.66L51.33 28.28C51.3379 28.2613 51.3496 28.2444 51.3642 28.2304C51.3789 28.2163 51.3962 28.2054 51.4152 28.1983C51.4342 28.1911 51.4544 28.1879 51.4747 28.1888C51.495 28.1897 51.5149 28.1947 51.5331 28.2035C51.5514 28.2123 51.5677 28.2247 51.5811 28.24C51.5944 28.2553 51.6045 28.2731 51.6108 28.2924C51.617 28.3117 51.6193 28.3321 51.6174 28.3523C51.6156 28.3725 51.6097 28.3922 51.6 28.41L50 31.78C49.9866 31.812 49.9618 31.838 49.9304 31.8528C49.899 31.8675 49.8632 31.8701 49.83 31.86Z" fill="#F97066"/>
<path d="M51.77 31.44C51.7473 31.4476 51.7227 31.4476 51.7 31.44C51.6659 31.4209 51.64 31.3901 51.6271 31.3533C51.6143 31.3164 51.6153 31.2761 51.63 31.24L52.77 28.9C52.7886 28.8642 52.8206 28.8372 52.859 28.825C52.8975 28.8129 52.9392 28.8164 52.975 28.835C53.0108 28.8536 53.0378 28.8856 53.05 28.924C53.0621 28.9625 53.0586 29.0042 53.04 29.04L51.9 31.36C51.8895 31.3853 51.8713 31.4067 51.848 31.4211C51.8246 31.4355 51.7973 31.4421 51.77 31.44Z" fill="#F97066"/>
<path d="M80 50.19C80.0072 51.8314 79.3922 53.4145 78.2789 54.6206C77.1656 55.8266 75.6367 56.5661 74 56.69H73.5H44C42.6739 56.69 41.4021 56.1632 40.4645 55.2255C39.5268 54.2879 39 53.0161 39 51.69C39 50.3639 39.5268 49.0921 40.4645 48.1545C41.4021 47.2168 42.6739 46.69 44 46.69C44.1431 46.6797 44.2869 46.6797 44.43 46.69C44.9444 45.2263 45.9012 43.9587 47.1679 43.0629C48.4346 42.1671 49.9485 41.6873 51.5 41.69H51.75C52.6181 39.459 54.1903 37.5722 56.228 36.3157C58.2656 35.0593 60.6576 34.5019 63.0408 34.7281C65.424 34.9543 67.6683 35.9518 69.4332 37.5692C71.1981 39.1866 72.3872 41.3356 72.82 43.69C73.05 43.69 73.27 43.69 73.5 43.69C74.3536 43.69 75.1988 43.8581 75.9874 44.1848C76.7761 44.5114 77.4926 44.9902 78.0962 45.5938C78.6998 46.1974 79.1786 46.9139 79.5052 47.7026C79.8319 48.4912 80 49.3364 80 50.19Z" fill="#343B48"/>
<path d="M0.4 5.06C0.325066 5.07064 0.248785 5.05438 0.184707 5.0141C0.120628 4.97382 0.0729 4.91214 0.0500002 4.84C0.0280604 4.75402 0.0284878 4.66385 0.0512428 4.57808C0.0739978 4.49231 0.118323 4.41379 0.18 4.35L2.86 0.619999H0.34C0.12 0.619999 0 0.519999 0 0.309999C0 0.0999992 0.12 -2.16835e-06 0.34 -2.16835e-06H3.4C3.4748 -0.00990736 3.55077 0.00535155 3.61595 0.0433709C3.68113 0.0813903 3.7318 0.140011 3.76 0.209999C3.77694 0.297761 3.77406 0.3882 3.75157 0.474706C3.72908 0.561213 3.68754 0.641603 3.63 0.709999L0.93 4.44H3.56C3.79 4.44 3.9 4.54 3.9 4.75C3.9 4.96 3.79 5.06 3.56 5.06H0.4Z" fill="#FEF0C7"/>
<path d="M5.19998 7.28C5.14613 7.28716 5.09148 7.27501 5.04572 7.24573C4.99996 7.21644 4.96605 7.1719 4.94998 7.12C4.93799 7.05864 4.93984 6.99538 4.95541 6.93483C4.97098 6.87427 4.99988 6.81797 5.03998 6.77L6.99998 4.13H5.15998C4.99998 4.13 4.91998 4.06 4.91998 3.91C4.91998 3.76 4.99998 3.69 5.15998 3.69H7.31998C7.45998 3.69 7.54998 3.69 7.57998 3.84C7.59198 3.90136 7.59012 3.96463 7.57455 4.02518C7.55898 4.08573 7.53009 4.14204 7.48998 4.19L5.57998 6.84H7.43998C7.59998 6.84 7.67998 6.91 7.67998 7.05C7.6834 7.08192 7.67945 7.1142 7.66844 7.14436C7.65743 7.17451 7.63965 7.20174 7.61647 7.22395C7.5933 7.24616 7.56534 7.26276 7.53474 7.27248C7.50414 7.2822 7.47173 7.28477 7.43998 7.28H5.19998Z" fill="#FEF0C7"/>
<path d="M9.07999 9.16999C9.03941 9.17451 8.99849 9.16509 8.96397 9.14328C8.92944 9.12148 8.90336 9.08858 8.88999 9.04999C8.88644 9.00104 8.89456 8.95194 8.91368 8.90674C8.9328 8.86154 8.96239 8.82153 8.99999 8.78999L10.42 6.78999H9.04999C8.92999 6.78999 8.87 6.72999 8.87 6.61999C8.87 6.50999 8.92999 6.45999 9.04999 6.45999H10.66C10.76 6.45999 10.82 6.45999 10.85 6.56999C10.8586 6.6158 10.8568 6.66297 10.8447 6.70799C10.8326 6.753 10.8105 6.79471 10.78 6.82999L9.35999 8.82999H10.75C10.86 8.82999 10.92 8.87999 10.92 8.98999C10.9233 9.01309 10.9213 9.03666 10.9139 9.05882C10.9066 9.08097 10.8941 9.10111 10.8776 9.11761C10.8611 9.13412 10.841 9.14655 10.8188 9.1539C10.7967 9.16126 10.7731 9.16335 10.75 9.15999L9.07999 9.16999Z" fill="#FEF0C7"/>
</svg>
