<svg id="elements" xmlns="http://www.w3.org/2000/svg" viewBox="0 0 71 54"><defs><style>.cls-1{fill:#fef0c7;}.cls-2{fill:#fedf89;}.cls-3{fill:#475467;}.cls-4{fill:#f97066;}.cls-5{fill:#343b48;}</style></defs><g id="moon_cloud"><g id="whole_moon"><g id="moon"><path class="cls-1" d="M74,57c0,.39,0,.77,0,1.15a24.92,24.92,0,0,1-.91,5.76A26,26,0,0,1,22,57v-.11A26,26,0,0,1,48,31a26.22,26.22,0,0,1,14.61,4.5A26,26,0,0,1,74,57Z" transform="translate(-22 -31)"/><circle class="cls-2" cx="19.93" cy="12.13" r="4.33"/><circle class="cls-2" cx="16.03" cy="33.37" r="2.17"/><circle class="cls-2" cx="20.49" cy="29.69" r="1.17"/><circle class="cls-2" cx="32.5" cy="40.3" r="3.03"/><path class="cls-2" d="M62.61,35.5a4.33,4.33,0,1,1-7.73-3.56A25.21,25.21,0,0,1,62.61,35.5Z" transform="translate(-22 -31)"/><path class="cls-2" d="M74,58.15a24.92,24.92,0,0,1-.91,5.76l-.36,0A3,3,0,1,1,74,58.15Z" transform="translate(-22 -31)"/><path class="cls-2" d="M24.6,53.53A3.46,3.46,0,0,1,22,56.89a25.82,25.82,0,0,1,.82-6.38A3.45,3.45,0,0,1,24.6,53.53Z" transform="translate(-22 -31)"/></g><g id="face"><path class="cls-3" d="M43.67,52.3a.5.5,0,0,1-.39-.18A5,5,0,0,0,39.5,50h0c-2.29,0-4.09,2.11-4.11,2.13a.5.5,0,1,1-.76-.64A7.1,7.1,0,0,1,39.49,49h0a6,6,0,0,1,4.56,2.49.49.49,0,0,1-.06.7A.51.51,0,0,1,43.67,52.3Z" transform="translate(-22 -31)"/><path class="cls-3" d="M61,52a.49.49,0,0,1-.38-.18,5,5,0,0,0-3.79-2.13,6.2,6.2,0,0,0-4.11,2.13.51.51,0,0,1-.71.06.49.49,0,0,1-.06-.7c.09-.1,2.11-2.49,4.88-2.49a6,6,0,0,1,4.56,2.49.5.5,0,0,1-.07.7A.49.49,0,0,1,61,52Z" transform="translate(-22 -31)"/><path class="cls-3" d="M48,66.7h-.2c-3-.11-4.94-2.78-5-2.9a.49.49,0,1,1,.8-.58s1.79,2.39,4.27,2.48c1.57.06,3.09-.79,4.58-2.52a.5.5,0,0,1,.76.66C51.51,65.73,49.77,66.7,48,66.7Z" transform="translate(-22 -31)"/></g><g id="blush"><path class="cls-4" d="M28.79,58.88h-.06a.14.14,0,0,1-.07-.2l.71-1.48a.16.16,0,0,1,.2-.07.15.15,0,0,1,.07.21l-.71,1.47A.16.16,0,0,1,28.79,58.88Z" transform="translate(-22 -31)"/><path class="cls-4" d="M30,60h-.06a.14.14,0,0,1-.07-.2l1.57-3.27a.15.15,0,0,1,.2-.07.14.14,0,0,1,.07.2l-1.57,3.27A.16.16,0,0,1,30,60Z" transform="translate(-22 -31)"/><path class="cls-4" d="M31.63,60.17h-.07a.16.16,0,0,1-.07-.2l1.64-3.38a.15.15,0,0,1,.27.13l-1.64,3.38A.14.14,0,0,1,31.63,60.17Z" transform="translate(-22 -31)"/><path class="cls-4" d="M33.57,59.75a.11.11,0,0,1-.07,0,.14.14,0,0,1-.06-.2l1.13-2.34a.16.16,0,0,1,.2-.07.15.15,0,0,1,.07.21L33.7,59.67A.13.13,0,0,1,33.57,59.75Z" transform="translate(-22 -31)"/></g><g id="blush-2" data-name="blush"><path class="cls-4" d="M60,58.88h-.07a.15.15,0,0,1-.07-.2l.71-1.48a.16.16,0,0,1,.2-.07.16.16,0,0,1,.07.21l-.71,1.47A.16.16,0,0,1,60,58.88Z" transform="translate(-22 -31)"/><path class="cls-4" d="M61.19,60h-.07a.15.15,0,0,1-.06-.2l1.57-3.27a.15.15,0,0,1,.27.13l-1.57,3.27A.16.16,0,0,1,61.19,60Z" transform="translate(-22 -31)"/><path class="cls-4" d="M62.83,60.17h-.07a.16.16,0,0,1-.07-.2l1.64-3.38a.15.15,0,1,1,.27.13L63,60.09A.14.14,0,0,1,62.83,60.17Z" transform="translate(-22 -31)"/><path class="cls-4" d="M64.77,59.75a.11.11,0,0,1-.07,0,.16.16,0,0,1-.07-.2l1.14-2.34a.15.15,0,1,1,.27.14L64.9,59.67A.13.13,0,0,1,64.77,59.75Z" transform="translate(-22 -31)"/></g></g><path class="cls-5" d="M93,78.5A6.49,6.49,0,0,1,87,85l-.5,0H57a5,5,0,0,1,0-10,3,3,0,0,1,.43,0,7.48,7.48,0,0,1,7.07-5h.25a11,11,0,0,1,21.07,2c.23,0,.45,0,.68,0A6.5,6.5,0,0,1,93,78.5Z" transform="translate(-22 -31)"/></g></svg>