<svg width="18" height="18" viewBox="0 0 18 18" fill="none" xmlns="http://www.w3.org/2000/svg">
<path fill-rule="evenodd" clip-rule="evenodd" d="M2.25 8.25C2.25 5.42157 2.25 4.00736 3.12868 3.12868C4.00736 2.25 5.42157 2.25 8.25 2.25H11.0931C11.9106 2.25 12.3194 2.25 12.6869 2.40224C13.0545 2.55448 13.3435 2.84351 13.9216 3.42157L14.5784 4.07843C15.1565 4.65649 15.4455 4.94552 15.5978 5.31306C15.75 5.6806 15.75 6.08935 15.75 6.90685V9.75C15.75 12.5784 15.75 13.9926 14.8713 14.8713C14.4245 15.3181 13.8393 15.5377 13 15.6457V14.25L13 14.1884C13.0001 13.5343 13.0001 12.9465 12.9362 12.4708C12.8663 11.9515 12.7042 11.4187 12.2678 10.9822C11.8313 10.5458 11.2985 10.3837 10.7792 10.3138C10.3035 10.2499 9.71573 10.2499 9.06161 10.25L9 10.25H8.25L8.18839 10.25C7.53427 10.2499 6.94655 10.2499 6.47084 10.3138C5.95149 10.3837 5.41867 10.5458 4.98223 10.9822C4.54579 11.4187 4.38366 11.9515 4.31383 12.4708C4.24988 12.9465 4.24993 13.5343 4.25 14.1884L4.25 14.25V15.4987C3.79062 15.3686 3.42848 15.1711 3.12868 14.8713C2.25 13.9926 2.25 12.5784 2.25 9.75V8.25ZM11 14.25V15.7464C10.617 15.75 10.2015 15.75 9.75 15.75H8.25C7.4859 15.75 6.825 15.75 6.25 15.7327V14.25C6.25 13.5146 6.25212 13.0637 6.296 12.7373C6.33457 12.4505 6.38942 12.4026 6.39592 12.3969L6.39645 12.3964L6.39692 12.3959C6.4026 12.3894 6.45049 12.3346 6.73734 12.296C7.06369 12.2521 7.51462 12.25 8.25 12.25H9C9.73538 12.25 10.1863 12.2521 10.5127 12.296C10.7995 12.3346 10.8474 12.3894 10.8531 12.3959L10.8536 12.3964L10.8541 12.3969C10.8606 12.4026 10.9154 12.4505 10.954 12.7373C10.9979 13.0637 11 13.5146 11 14.25ZM5.25 5C4.69772 5 4.25 5.44772 4.25 6C4.25 6.55228 4.69772 7 5.25 7H9C9.55228 7 10 6.55228 10 6C10 5.44772 9.55228 5 9 5H5.25Z" fill="#B692F6"/>
</svg>
