<svg width="18" height="18" viewBox="0 0 18 18" fill="none" xmlns="http://www.w3.org/2000/svg">
<path fill-rule="evenodd" clip-rule="evenodd" d="M11.9775 12.6075C12.375 12.2325 12.9075 12 13.5 12C14.745 12 15.75 13.005 15.75 14.25C15.75 15.495 14.745 16.5 13.5 16.5C12.255 16.5 11.25 15.495 11.25 14.25C11.25 14.07 11.28 13.8975 11.3175 13.7325L6.03 10.6425C5.625 11.0175 5.0925 11.25 4.5 11.25C3.255 11.25 2.25 10.245 2.25 9C2.25 7.755 3.255 6.75 4.5 6.75C5.0925 6.75 5.625 6.9825 6.03 7.3575L11.3175 4.275C11.28 4.11 11.25 3.93 11.25 3.75C11.25 2.505 12.255 1.5 13.5 1.5C14.745 1.5 15.75 2.505 15.75 3.75C15.75 4.995 14.745 6 13.5 6C12.9075 6 12.3675 5.7675 11.97 5.3925L6.6825 8.475C6.72 8.6475 6.75 8.82 6.75 9C6.75 9.18 6.72 9.3525 6.6825 9.525L11.9775 12.6075ZM14.25 3.75C14.25 3.3375 13.9125 3 13.5 3C13.0875 3 12.75 3.3375 12.75 3.75C12.75 4.1625 13.0875 4.5 13.5 4.5C13.9125 4.5 14.25 4.1625 14.25 3.75ZM4.5 9.75C4.0875 9.75 3.75 9.4125 3.75 9C3.75 8.5875 4.0875 8.25 4.5 8.25C4.9125 8.25 5.25 8.5875 5.25 9C5.25 9.4125 4.9125 9.75 4.5 9.75ZM12.75 14.25C12.75 14.6625 13.0875 15 13.5 15C13.9125 15 14.25 14.6625 14.25 14.25C14.25 13.8375 13.9125 13.5 13.5 13.5C13.0875 13.5 12.75 13.8375 12.75 14.25Z" fill="#B692F6"/>
</svg>
