<svg id="emotion" xmlns="http://www.w3.org/2000/svg" viewBox="0 0 20 20"><defs><style>.cls-1{fill:#fef0c7;}.cls-2{fill:#fedf89;}.cls-3{fill:#343b48;}</style></defs><g id="angry"><g id="whole_moon"><g id="moon"><path class="cls-1" d="M22,12c0,.15,0,.3,0,.44a9.53,9.53,0,0,1-.35,2.22A10,10,0,0,1,2,12v0A9.54,9.54,0,0,1,2.32,9.5,10,10,0,0,1,12,2a9.69,9.69,0,0,1,2.65.36A10,10,0,0,1,22,12Z" transform="translate(-2 -2)"/><circle class="cls-2" cx="7.67" cy="4.67" r="1.67"/><circle class="cls-2" cx="6.17" cy="12.83" r="0.83"/><circle class="cls-2" cx="7.88" cy="11.42" r="0.45"/><circle class="cls-2" cx="12.5" cy="15.5" r="1.17"/><path class="cls-2" d="M17.62,3.73a1.67,1.67,0,0,1-3.29-.4,1.63,1.63,0,0,1,.32-1A9.92,9.92,0,0,1,17.62,3.73Z" transform="translate(-2 -2)"/><path class="cls-2" d="M22,12.44a9.53,9.53,0,0,1-.35,2.22H21.5A1.17,1.17,0,1,1,22,12.44Z" transform="translate(-2 -2)"/><path class="cls-2" d="M3,10.67A1.33,1.33,0,0,1,2,12,9.54,9.54,0,0,1,2.32,9.5,1.36,1.36,0,0,1,3,10.67Z" transform="translate(-2 -2)"/></g></g><g id="face"><path class="cls-3" d="M13.67,16.08a.7.7,0,0,1-.25,0c-1.76-.78-2.66-.11-2.7-.08a.64.64,0,0,1-.87-.11A.62.62,0,0,1,9.94,15c.06-.05,1.49-1.18,4-.09a.64.64,0,0,1,.32.83A.62.62,0,0,1,13.67,16.08Z" transform="translate(-2 -2)"/></g><g id="eye"><path class="cls-3" d="M10.6,8.2a2.23,2.23,0,0,1,.15.8c0,.83-.45,1.5-1,1.5s-1-.67-1-1.5a1.78,1.78,0,0,1,.46-1.27Z" transform="translate(-2 -2)"/><path class="cls-3" d="M10.5,9.12a.69.69,0,0,1-.2,0l-3-1a.62.62,0,0,1,.4-1.18l3,1a.63.63,0,0,1,.39.79A.61.61,0,0,1,10.5,9.12Z" transform="translate(-2 -2)"/></g><g id="eye-2" data-name="eye"><path class="cls-3" d="M13.65,8.2a2.23,2.23,0,0,0-.15.8c0,.83.45,1.5,1,1.5s1-.67,1-1.5A1.78,1.78,0,0,0,15,7.73Z" transform="translate(-2 -2)"/><path class="cls-3" d="M13.75,9.12a.62.62,0,0,1-.2-1.21l3-1a.63.63,0,0,1,.79.39.62.62,0,0,1-.39.79l-3,1A.69.69,0,0,1,13.75,9.12Z" transform="translate(-2 -2)"/></g></g></svg>