<svg id="emotion" xmlns="http://www.w3.org/2000/svg" viewBox="0 0 20 20"><defs><style>.cls-1{fill:#fef0c7;}.cls-2{fill:#fedf89;}.cls-3{fill:#343b48;}</style></defs><g id="confused"><g id="whole_moon"><g id="moon"><path class="cls-1" d="M22,12c0,.15,0,.3,0,.44a9.53,9.53,0,0,1-.35,2.22A10,10,0,0,1,2,12v0A9.54,9.54,0,0,1,2.32,9.5,10,10,0,0,1,12,2a9.69,9.69,0,0,1,2.65.36A10,10,0,0,1,22,12Z" transform="translate(-2 -2)"/><circle class="cls-2" cx="7.67" cy="4.67" r="1.67"/><circle class="cls-2" cx="6.17" cy="12.83" r="0.83"/><circle class="cls-2" cx="7.88" cy="11.42" r="0.45"/><circle class="cls-2" cx="12.5" cy="15.5" r="1.17"/><path class="cls-2" d="M17.62,3.73a1.67,1.67,0,0,1-3.29-.4,1.63,1.63,0,0,1,.32-1A9.92,9.92,0,0,1,17.62,3.73Z" transform="translate(-2 -2)"/><path class="cls-2" d="M22,12.44a9.53,9.53,0,0,1-.35,2.22H21.5A1.17,1.17,0,1,1,22,12.44Z" transform="translate(-2 -2)"/><path class="cls-2" d="M3,10.67A1.33,1.33,0,0,1,2,12,9.54,9.54,0,0,1,2.32,9.5,1.36,1.36,0,0,1,3,10.67Z" transform="translate(-2 -2)"/></g></g><g id="face"><g id="face-2" data-name="face"><ellipse class="cls-3" cx="7.67" cy="7.48" rx="1.01" ry="1.52"/><ellipse class="cls-3" cx="12.22" cy="7.48" rx="1.01" ry="1.52"/></g><path class="cls-3" d="M13.67,16.1H10.33a.62.62,0,0,1-.49-1,3.11,3.11,0,0,1,2.22-1.19,2.66,2.66,0,0,1,2.1,1.19.62.62,0,0,1-.49,1Z" transform="translate(-2 -2)"/><path class="cls-3" d="M10,7.79A4.38,4.38,0,0,1,7.12,6.33a.5.5,0,1,1,.76-.66s1.5,1.68,2.87.9a.5.5,0,0,1,.5.86A2.51,2.51,0,0,1,10,7.79Z" transform="translate(-2 -2)"/><path class="cls-3" d="M13.46,7.45A.48.48,0,0,1,13,7.17a.49.49,0,0,1,.22-.67c.1,0,2.36-1.16,3.62.1a.5.5,0,0,1,0,.7.5.5,0,0,1-.71,0c-.62-.62-2-.12-2.46.1A.64.64,0,0,1,13.46,7.45Z" transform="translate(-2 -2)"/></g></g></svg>