<svg id="emotion" xmlns="http://www.w3.org/2000/svg" viewBox="0 0 20 20"><defs><style>.cls-1{fill:#fef0c7;}.cls-2{fill:#fedf89;}.cls-3{fill:#f97066;}.cls-4{fill:#343b48;}</style></defs><g id="whole_moon"><g id="moon"><path class="cls-1" d="M22,12c0,.15,0,.3,0,.44a9.53,9.53,0,0,1-.35,2.22A10,10,0,0,1,2,12v0A9.54,9.54,0,0,1,2.32,9.5,10,10,0,0,1,12,2a9.69,9.69,0,0,1,2.65.36A10,10,0,0,1,22,12Z" transform="translate(-2 -2)"/><circle class="cls-2" cx="7.67" cy="4.67" r="1.67"/><circle class="cls-2" cx="6.17" cy="12.83" r="0.83"/><circle class="cls-2" cx="7.88" cy="11.42" r="0.45"/><circle class="cls-2" cx="12.5" cy="15.5" r="1.17"/><path class="cls-2" d="M17.62,3.73a1.67,1.67,0,0,1-3.29-.4,1.63,1.63,0,0,1,.32-1A9.92,9.92,0,0,1,17.62,3.73Z" transform="translate(-2 -2)"/><path class="cls-2" d="M22,12.44a9.53,9.53,0,0,1-.35,2.22H21.5A1.17,1.17,0,1,1,22,12.44Z" transform="translate(-2 -2)"/><path class="cls-2" d="M3,10.67A1.33,1.33,0,0,1,2,12,9.54,9.54,0,0,1,2.32,9.5,1.36,1.36,0,0,1,3,10.67Z" transform="translate(-2 -2)"/></g></g><g id="blush"><path class="cls-3" d="M16.69,13.15l-.07,0a.14.14,0,0,1-.06-.2l.41-.81a.15.15,0,0,1,.26.14l-.41.81A.13.13,0,0,1,16.69,13.15Z" transform="translate(-2 -2)"/><path class="cls-3" d="M17.58,13.37a.08.08,0,0,1-.07,0,.15.15,0,0,1-.07-.2L18.05,12a.15.15,0,0,1,.2-.06.16.16,0,0,1,.07.2l-.61,1.18A.16.16,0,0,1,17.58,13.37Z" transform="translate(-2 -2)"/><path class="cls-3" d="M18.69,13.15l-.07,0a.14.14,0,0,1-.06-.2l.41-.81a.15.15,0,0,1,.26.14l-.41.81A.13.13,0,0,1,18.69,13.15Z" transform="translate(-2 -2)"/></g><g id="blush-2" data-name="blush"><path class="cls-3" d="M4.69,13.15l-.07,0a.14.14,0,0,1-.06-.2L5,12.12a.15.15,0,0,1,.2-.06.14.14,0,0,1,.06.2l-.41.81A.14.14,0,0,1,4.69,13.15Z" transform="translate(-2 -2)"/><path class="cls-3" d="M5.58,13.37a.08.08,0,0,1-.07,0,.14.14,0,0,1-.07-.2L6.05,12a.14.14,0,0,1,.2-.06.15.15,0,0,1,.06.2l-.6,1.18A.16.16,0,0,1,5.58,13.37Z" transform="translate(-2 -2)"/><path class="cls-3" d="M6.69,13.15l-.07,0a.14.14,0,0,1-.06-.2L7,12.12a.15.15,0,1,1,.26.14l-.41.81A.14.14,0,0,1,6.69,13.15Z" transform="translate(-2 -2)"/></g><g id="face"><path class="cls-4" d="M12.06,16.1h0a3.11,3.11,0,0,1-2.22-1.19.62.62,0,0,1,.49-1h3.34a.62.62,0,0,1,.49,1A2.66,2.66,0,0,1,12.06,16.1Z" transform="translate(-2 -2)"/><polygon class="cls-4" points="7.87 8.37 6.99 7.9 6.09 8.36 6.27 7.37 5.56 6.66 6.56 6.52 7.01 5.63 7.45 6.53 8.44 6.69 7.71 7.38 7.87 8.37"/><path class="cls-4" d="M9.87,10.67l-.14,0L9,10.24l-.75.38a.29.29,0,0,1-.32,0,.3.3,0,0,1-.11-.3L8,9.47l-.6-.6a.3.3,0,0,1,.17-.51l.84-.11.38-.76A.38.38,0,0,1,9,7.33a.28.28,0,0,1,.27.17l.37.76.84.13a.32.32,0,0,1,.24.21.3.3,0,0,1-.08.3L10,9.49l.14.84a.3.3,0,0,1-.12.29A.27.27,0,0,1,9.87,10.67ZM9,9.6a.32.32,0,0,1,.14,0l.35.19-.06-.39a.28.28,0,0,1,.09-.27l.28-.27L9.4,8.83a.3.3,0,0,1-.22-.17L9,8.3l-.18.36a.28.28,0,0,1-.22.16l-.4,0,.28.28a.3.3,0,0,1,.09.27l-.07.39.35-.18A.32.32,0,0,1,9,9.6Z" transform="translate(-2 -2)"/><polygon class="cls-4" points="13.87 8.37 12.99 7.9 12.09 8.36 12.27 7.37 11.56 6.66 12.56 6.52 13.01 5.63 13.45 6.53 14.44 6.69 13.71 7.38 13.87 8.37"/><path class="cls-4" d="M15.87,10.67l-.14,0-.74-.4-.76.38a.27.27,0,0,1-.31,0,.29.29,0,0,1-.12-.3L14,9.47l-.6-.6a.3.3,0,0,1,.17-.51l.84-.11.38-.76A.38.38,0,0,1,15,7.33a.28.28,0,0,1,.27.17l.37.76.84.13a.32.32,0,0,1,.24.21.3.3,0,0,1-.08.3L16,9.49l.13.84a.3.3,0,0,1-.12.29A.27.27,0,0,1,15.87,10.67ZM15,9.6a.32.32,0,0,1,.14,0l.35.19-.06-.39a.3.3,0,0,1,.09-.27l.28-.27-.39-.06a.3.3,0,0,1-.22-.17L15,8.3l-.18.36a.28.28,0,0,1-.22.16l-.4,0,.28.28a.33.33,0,0,1,.09.27l-.07.39.35-.18A.32.32,0,0,1,15,9.6Z" transform="translate(-2 -2)"/></g></svg>