<svg id="emotion" xmlns="http://www.w3.org/2000/svg" viewBox="0 0 20 20"><defs><style>.cls-1{fill:#fef0c7;}.cls-2{fill:#fedf89;}.cls-3{fill:#343b48;}.cls-4{fill:#f97066;}</style></defs><g id="happy"><g id="whole_moon"><g id="moon"><path class="cls-1" d="M22,12c0,.15,0,.3,0,.44a9.53,9.53,0,0,1-.35,2.22A10,10,0,0,1,2,12v0A9.54,9.54,0,0,1,2.32,9.5,10,10,0,0,1,12,2a9.69,9.69,0,0,1,2.65.36A10,10,0,0,1,22,12Z" transform="translate(-2 -2)"/><circle class="cls-2" cx="7.67" cy="4.67" r="1.67"/><circle class="cls-2" cx="6.17" cy="12.83" r="0.83"/><circle class="cls-2" cx="7.88" cy="11.42" r="0.45"/><circle class="cls-2" cx="12.5" cy="15.5" r="1.17"/><path class="cls-2" d="M17.62,3.73a1.67,1.67,0,0,1-3.29-.4,1.63,1.63,0,0,1,.32-1A9.92,9.92,0,0,1,17.62,3.73Z" transform="translate(-2 -2)"/><path class="cls-2" d="M22,12.44a9.53,9.53,0,0,1-.35,2.22H21.5A1.17,1.17,0,1,1,22,12.44Z" transform="translate(-2 -2)"/><path class="cls-2" d="M3,10.67A1.33,1.33,0,0,1,2,12,9.54,9.54,0,0,1,2.32,9.5,1.36,1.36,0,0,1,3,10.67Z" transform="translate(-2 -2)"/></g></g><g id="face"><path class="cls-3" d="M10.17,10.42a.63.63,0,0,1-.5-.24,1.48,1.48,0,0,0-1.1-.71,1.75,1.75,0,0,0-1.25.71.62.62,0,0,1-.87.11.63.63,0,0,1-.11-.88A3.11,3.11,0,0,1,8.56,8.22a2.66,2.66,0,0,1,2.1,1.19.63.63,0,0,1-.11.88A.6.6,0,0,1,10.17,10.42Z" transform="translate(-2 -2)"/><path class="cls-3" d="M17.17,10.42a.63.63,0,0,1-.5-.24,1.48,1.48,0,0,0-1.1-.71h0a1.89,1.89,0,0,0-1.24.71.62.62,0,0,1-.87.11.63.63,0,0,1-.11-.88,3.09,3.09,0,0,1,2.22-1.19,2.66,2.66,0,0,1,2.1,1.19.63.63,0,0,1-.11.88A.6.6,0,0,1,17.17,10.42Z" transform="translate(-2 -2)"/><path class="cls-3" d="M11.9,15.78a3.14,3.14,0,0,1-2.23-1.19.63.63,0,0,1,1-.77,1.87,1.87,0,0,0,1.24.71h0A1.51,1.51,0,0,0,13,13.82a.62.62,0,1,1,1,.77A2.65,2.65,0,0,1,11.9,15.78Z" transform="translate(-2 -2)"/><g id="blush"><path class="cls-4" d="M16.69,13.15l-.07,0a.14.14,0,0,1-.06-.2l.41-.81a.15.15,0,0,1,.26.14l-.41.81A.13.13,0,0,1,16.69,13.15Z" transform="translate(-2 -2)"/><path class="cls-4" d="M17.58,13.37a.08.08,0,0,1-.07,0,.15.15,0,0,1-.07-.2L18.05,12a.15.15,0,0,1,.2-.06.16.16,0,0,1,.07.2l-.61,1.18A.16.16,0,0,1,17.58,13.37Z" transform="translate(-2 -2)"/><path class="cls-4" d="M18.69,13.15l-.07,0a.14.14,0,0,1-.06-.2l.41-.81a.15.15,0,0,1,.26.14l-.41.81A.13.13,0,0,1,18.69,13.15Z" transform="translate(-2 -2)"/></g><g id="blush-2" data-name="blush"><path class="cls-4" d="M4.69,13.15l-.07,0a.14.14,0,0,1-.06-.2L5,12.12a.15.15,0,0,1,.2-.06.14.14,0,0,1,.06.2l-.41.81A.14.14,0,0,1,4.69,13.15Z" transform="translate(-2 -2)"/><path class="cls-4" d="M5.58,13.37a.08.08,0,0,1-.07,0,.14.14,0,0,1-.07-.2L6.05,12a.14.14,0,0,1,.2-.06.15.15,0,0,1,.06.2l-.6,1.18A.16.16,0,0,1,5.58,13.37Z" transform="translate(-2 -2)"/><path class="cls-4" d="M6.69,13.15l-.07,0a.14.14,0,0,1-.06-.2L7,12.12a.15.15,0,1,1,.26.14l-.41.81A.14.14,0,0,1,6.69,13.15Z" transform="translate(-2 -2)"/></g></g></g></svg>